Coordinates
version=1
nRows=13
nColumns=34
inDegrees=yes

Units are S.I. units (second, meters, Newtons, ...)
If the header above contains a line with 'inDegrees', this indicates whether rotational values are in degrees (yes) or radians (no).

endheader
time	pelvis_tilt	pelvis_list	pelvis_rotation	pelvis_tx	pelvis_ty	pelvis_tz	hip_flexion_r	hip_adduction_r	hip_rotation_r	knee_angle_r	ankle_angle_r	subtalar_angle_r	mtp_angle_r	hip_flexion_l	hip_adduction_l	hip_rotation_l	knee_angle_l	ankle_angle_l	subtalar_angle_l	mtp_angle_l	lumbar_extension	lumbar_bending	lumbar_rotation	arm_flex_r	arm_add_r	arm_rot_r	elbow_flex_r	pro_sup_r	arm_flex_l	arm_add_l	arm_rot_l	elbow_flex_l	pro_sup_l
      3.60000000	    -25.69749344	      5.29675762	     -3.93523881	      0.88545035	      0.69028025	     -0.12519025	     78.68964238	    -20.13408350	     -1.61338513	     84.90240766	     37.46557563	     12.33126075	      0.00000000	     79.63236853	    -17.32355304	     -9.16157159	     85.46146522	     37.42538457	      4.82139544	      0.00000000	    -34.22432873	     -0.27844285	      1.97995677	     85.50406294	    -23.08877065	     37.53006361	    105.45872588	     97.96978359	     82.27610504	    -18.96532493	     35.31390267	    109.29218185	     95.23338962
      3.61666670	    -25.34486012	      4.90270553	     -3.83199452	      0.89944809	      0.69091009	     -0.11729992	     77.42693452	    -19.79134530	     -2.06344047	     85.11634015	     38.26118284	     11.82182445	      0.00000000	     78.82944247	    -17.64875705	     -8.44727095	     85.47923667	     37.64645584	      4.99870520	      0.00000000	    -32.84891788	     -0.19451589	      1.66360952	     76.84445886	    -23.69495011	     35.37062457	    104.59479976	     96.70800865	     77.45630485	    -19.26701138	     35.18283555	    105.08740848	     93.69753884
      3.63333330	    -24.96481404	      4.46284199	     -3.63916633	      0.90044566	      0.69702984	     -0.11765872	     75.77697500	    -19.45030273	     -2.73110084	     84.58233133	     38.84964436	     11.26998965	      0.00000000	     77.97104120	    -17.82007939	     -7.96754471	     85.18411323	     37.77876648	      5.26606792	      0.00000000	    -31.89188961	      0.00951984	      1.82472891	     69.68740943	    -24.76811302	     33.08798174	    100.90426761	     95.30091988	     73.22885152	    -19.31363832	     34.57207107	     99.33700367	     92.00864837
      3.65000000	    -23.77717500	      4.05807838	     -3.64863457	      0.91676543	      0.70881077	     -0.12760212	     72.58956849	    -19.70106716	     -3.47739781	     83.25970751	     39.08026739	     11.18780031	      0.00000000	     75.30542889	    -17.70886440	     -8.17372455	     84.26906055	     38.00775765	      5.65119086	      0.00000000	    -31.73619386	      1.05119776	      1.73932253	     62.86688884	    -25.81838327	     31.18449297	     95.86047266	     94.76696410	     67.23843365	    -18.87375300	     32.55351960	     93.74120417	     91.22512077
      3.66666670	    -22.98584784	      3.88632781	     -3.59833931	      0.91266228	      0.72428257	     -0.12828960	     70.10780573	    -19.89259906	     -3.99228952	     81.28173468	     38.32474133	     11.25881215	      0.00000000	     72.78003238	    -17.18760919	     -8.72217711	     82.30546079	     37.51348933	      5.35908927	      0.00000000	    -32.00586965	      1.39199478	      1.78112824	     57.87727765	    -26.66089774	     29.57630327	     89.15577544	     94.18700007	     62.74961018	    -18.19191790	     30.32953907	     86.82284724	     90.48540955
      3.68333330	    -22.12690131	      3.97638742	     -3.57979134	      0.91119516	      0.73226441	     -0.13335120	     67.92961436	    -20.42924635	     -4.34518245	     79.13073327	     37.41862881	     11.67602607	      0.00000000	     70.53132391	    -16.24340438	     -9.31818079	     80.37031118	     37.07943949	      4.68350534	      0.00000000	    -32.21952783	      1.59948435	      1.56423912	     54.37680498	    -27.47427036	     28.76740076	     81.58577062	     93.72057446	     59.55894377	    -17.35546284	     28.12992103	     79.47759204	     89.80023156
      3.70000000	    -21.53151882	      3.60653763	     -3.33379311	      0.91258318	      0.74834104	     -0.12220011	     65.32316823	    -20.05966214	     -5.54328819	     76.46570548	     36.54212010	     11.79953367	      0.00000000	     68.46590411	    -16.05332521	     -9.46230938	     77.78690270	     35.58173669	      4.47243225	      0.00000000	    -32.52412373	      1.71736686	      1.31619396	     51.02253659	    -26.75267575	     28.22325814	     74.21959637	     92.90845244	     57.18658703	    -17.58408035	     26.77942375	     70.62998260	     88.56944328
      3.71666670	    -20.50149072	      3.32067296	     -3.21432959	      0.91068573	      0.76289754	     -0.11856536	     62.61393629	    -19.42083871	     -6.54576259	     73.88588073	     35.59707643	     11.43146852	      0.00000000	     66.06337995	    -15.97041187	     -9.66779139	     75.13202471	     33.98278132	      3.94246829	      0.00000000	    -33.33926716	      1.68525945	      1.11622710	     48.37777347	    -26.11059111	     28.16524212	     67.38462460	     92.13423557	     55.57897023	    -18.08318656	     25.83150902	     62.29061801	     87.21609855
      3.73333330	    -19.47377048	      2.88678785	     -3.07974843	      0.91867929	      0.76895975	     -0.11478978	     60.32415909	    -18.39872427	     -6.95761813	     72.42239669	     34.62032108	     10.09674632	      0.00000000	     63.80984484	    -16.08956148	     -9.43989911	     72.98820449	     33.14854306	      3.76808336	      0.00000000	    -33.24361103	      1.67401644	      0.67109361	     43.89358374	    -25.51659315	     27.57022595	     62.95466059	     91.46785549	     51.94846351	    -19.64302876	     24.96958166	     56.25544132	     86.13140659
      3.75000000	    -18.81984003	      2.64949152	     -3.19711007	      0.92198882	      0.78638116	     -0.11289744	     57.65515341	    -17.45809825	     -7.59648787	     69.63523445	     33.82632291	      9.84458485	      0.00000000	     61.48641798	    -16.08265404	     -9.34576350	     70.59986452	     32.07344065	      3.77516003	      0.00000000	    -32.59301929	      1.53076924	      0.33856929	     39.30500333	    -25.30745134	     26.86185501	     58.27956566	     90.55751182	     48.29377487	    -20.86467921	     24.54185077	     50.71936966	     84.55634433
      3.76666670	    -17.65085351	      2.46594351	     -3.24812008	      0.92889942	      0.80403899	     -0.11556852	     53.88699714	    -16.94885276	     -8.48499895	     66.02903513	     32.58909111	      9.60695884	      0.00000000	     58.26868788	    -15.76143722	     -9.65779129	     67.69185368	     30.70860674	      3.59361569	      0.00000000	    -32.51207025	      1.63012418	      0.10427973	     34.88075150	    -24.72932940	     25.98878349	     50.93129536	     89.69856095	     44.43447294	    -21.35997652	     24.71811878	     45.24645542	     83.20553176
      3.78333330	    -16.51044208	      2.44068121	     -3.26582478	      0.93145394	      0.82068598	     -0.11776689	     50.12363104	    -16.63209288	     -9.22311298	     62.07688852	     30.95175427	      9.14777438	      0.00000000	     54.46717218	    -15.22507800	    -10.58425576	     64.00346564	     29.50384161	      3.83125650	      0.00000000	    -32.46001949	      1.79780235	      0.26118319	     31.09595906	    -24.40013760	     25.42902275	     43.86708880	     88.74231610	     40.76325183	    -21.25316938	     25.03123029	     41.42088617	     81.95157311
      3.80000000	    -15.37277888	      2.37628650	     -3.40270743	      0.94332373	      0.83306312	     -0.11108957	     46.20758706	    -16.05167791	    -10.06559432	     58.20812974	     29.89660680	      8.91672879	      0.00000000	     50.44634631	    -14.90861281	    -11.24556001	     60.17274232	     28.12972450	      4.09553483	      0.00000000	    -31.68611765	      1.62328212	     -0.01639904	     27.06603946	    -22.96995309	     25.56328495	     36.67691668	     85.63652668	     36.15579713	    -21.70779221	     25.17085275	     37.05153628	     77.69133156
